<svg width="800px" height="800px" viewBox="0 0 800 800" xmlns="http://www.w3.org/2000/svg">
  <rect width="800" height="800" fill="#012169"/>
  <path d="M400 180C278 180 180 278 180 400C180 522 278 620 400 620C522 620 620 522 620 400C620 278 522 180 400 180ZM400 580C300 580 220 500 220 400C220 300 300 220 400 220C500 220 580 300 580 400C580 500 500 580 400 580Z" fill="#00539B"/>
  <path d="M400 260C322 260 260 322 260 400C260 478 322 540 400 540C478 540 540 478 540 400C540 322 478 260 400 260ZM400 500C344 500 300 456 300 400C300 344 344 300 400 300C456 300 500 344 500 400C500 456 456 500 400 500Z" fill="white"/>
  <path d="M400 340C366 340 340 366 340 400C340 434 366 460 400 460C434 460 460 434 460 400C460 366 434 340 400 340Z" fill="#00539B"/>
</svg>